<svg width="40" height="52" viewBox="0 0 40 52" fill="none" xmlns="http://www.w3.org/2000/svg">
<path fill-rule="evenodd" clip-rule="evenodd" d="M23.6417 0.929542C24.8073 1.29696 25.5999 2.37789 25.5999 3.60001V17.6L36.7999 17.6C37.844 17.6 38.8013 18.1809 39.2835 19.1069C39.7656 20.033 39.6925 21.1504 39.0938 22.0057L19.4938 50.0057C18.7929 51.0069 17.5237 51.4379 16.3581 51.0705C15.1925 50.7031 14.3999 49.6221 14.3999 48.4L14.3999 34.4H3.19991C2.15586 34.4 1.19852 33.8191 0.71637 32.8931C0.234216 31.967 0.307337 30.8496 0.906061 29.9943L20.5061 1.99431C21.2069 0.993116 22.4761 0.562125 23.6417 0.929542Z" fill="#FF7500"/>
</svg>
